<svg version="1.1" id="Layer_1" xmlns="http://www.w3.org/2000/svg" xmlns:xlink="http://www.w3.org/1999/xlink" x="0px" y="0px"
	 viewBox="0 0 214 264" style="enable-background:new 0 0 214 264;" xml:space="preserve">
<style type="text/css">
	.st0{fill:#EDC298;}
	.st1{fill:#DAAF87;}
	.st2{fill:#30363D;}
	.st3{fill:none;stroke:#000000;stroke-width:2.8493;stroke-miterlimit:10;}
	.st4{fill:#E7BA8F;}
	.st5{fill:#171A1D;}
	.st6{fill:#D4A57B;}
</style>
<g id="eric">
	<path class="st0" d="M107.1,195.7v64.5c0,0-45.9-13.5-46.1-14.1c-0.2-0.5-5.9-21.2-1.1-26.2c4.8-5,10.2-15.1,10.2-15.1
		s-2-19.4-0.5-26C71,172.3,107.1,194.5,107.1,195.7z"/>
	<path class="st1" d="M107.1,176.5v31.2c0,0-19.2-5.2-23.3-10.7c-4.1-5.5-12.3-10.7-13.2-12.6c-0.9-2-2.5-18.3-3-19.9
		C67,162.8,107.1,176.5,107.1,176.5z"/>
	<path class="st1" d="M48.7,100.1c0,0-12.8-1.4-15.1,1.4c-2.3,2.8-5.5,9.3-5.5,11.9c0,2.6,4.8,10,6.5,13.1
		c1.8,3.1,3.5,10.4,8.3,10.7c4.8,0.2,11.6-1.7,12.1-2.4C55.5,134,48.7,100.1,48.7,100.1z"/>
	<path class="st0" d="M107.1,29.2v163.5c0,0-11.8,0.5-24.9-10c-9.9-7.9-26.4-17.3-30.9-39.1c-4.5-21.7-4.5-63.9-4.5-63.9
		S50.8,30.3,107.1,29.2z"/>
	<path class="st2" d="M107.2,238.2v24.2H12.6c0,0-0.7-35.9,2.1-39.7c2.7-3.8,22.3-9.5,24.9-11.2c2.6-1.7,5.1-3.6,7.9-4.3
		c2.7-0.7,9.4-3.1,11.1-4c1.7-0.9,4.8-1.3,6.9-3.4c2.1-2.1,4.5-3.9,4.6-3.1c0,0.8,0.6,5.9,0.1,8.1c-0.5,2.1-1.6,4-3.8,7
		C63.2,216,90.6,239.6,107.2,238.2z"/>
	<path d="M70.7,89.4c0.4,0.6,11.8-4.3,26.6,1.7c3.3,1.3-3.6-8.5-17.8-8.5C76.9,82.5,68.4,85.4,70.7,89.4z"/>
	<path d="M71.9,103.9c0,0,17.1,0.9,18,1.2c1,0.2-9.5-5.9-11.4-5.3C76.7,100.3,71.9,103.9,71.9,103.9z"/>
	<path class="st3" d="M60.5,96.8c0,0,20.5-11.6,40,1.2c3.9,2.6,0.5,20.5,0.5,20.5s-4.8,7.8-15.4,7.8c-4.4,0-14.9-0.4-19-4.7
		C62.7,117.4,57.7,98.4,60.5,96.8z"/>
	<line class="st3" x1="60.5" y1="96.8" x2="47" y2="99.7"/>
	<line class="st3" x1="102.3" y1="99.7" x2="107.1" y2="99.7"/>
	<path class="st4" d="M107.1,195.7v64.5c0,0,45.9-13.5,46.1-14.1c0.2-0.5,5.9-21.2,1.1-26.2c-4.8-5-10.2-15.1-10.2-15.1
		s2-19.4,0.5-26C143.1,172.3,107.1,194.5,107.1,195.7z"/>
	<path class="st1" d="M107.1,176.5v31.2c0,0,19.2-5.2,23.3-10.7c4.1-5.5,12.3-10.7,13.2-12.6c0.9-2,2.5-18.3,3-19.9
		C147.1,162.8,107.1,176.5,107.1,176.5z"/>
	<path class="st1" d="M165.4,100.1c0,0,12.8-1.4,15.1,1.4c2.3,2.8,5.5,9.3,5.5,11.9c0,2.6-4.8,10-6.5,13.1
		c-1.8,3.1-3.5,10.4-8.3,10.7c-4.8,0.2-11.6-1.7-12.1-2.4C158.6,134,165.4,100.1,165.4,100.1z"/>
	<path class="st4" d="M107.1,29.2v163.5c0,0,11.8,0.5,24.9-10c9.9-7.9,26.4-17.3,30.9-39.1c4.5-21.7,4.5-63.9,4.5-63.9
		S163.3,30.3,107.1,29.2z"/>
	<path class="st5" d="M107.1,238.2v24.2h94.4c0,0,0.7-35.9-2.1-39.7c-2.7-3.8-22.3-9.5-24.9-11.2c-2.6-1.7-5.1-3.6-7.9-4.3
		c-2.7-0.7-9.4-3.1-11.1-4c-1.7-0.9-4.8-1.3-6.9-3.4c-2.1-2.1-4.5-3.9-4.6-3.1c0,0.8-0.6,5.9-0.1,8.1c0.5,2.1,3.4,5.2,3.8,7
		C148.7,216.9,123.7,239.6,107.1,238.2z"/>
	<path d="M143.4,89.4c-0.4,0.6-11.8-4.3-26.6,1.7c-3.3,1.3,3.6-8.5,17.8-8.5C137.3,82.5,145.8,85.4,143.4,89.4z"/>
	<path d="M142.2,103.9c0,0-17.1,0.9-18,1.2c-1,0.2,9.5-5.9,11.4-5.3C137.5,100.3,142.2,103.9,142.2,103.9z"/>
	<path class="st3" d="M153.7,96.8c0,0-20.5-11.6-40,1.2c-3.9,2.6-0.5,20.5-0.5,20.5s4.8,7.8,15.4,7.8c4.4,0,14.9-0.4,19-4.7
		C151.5,117.4,156.4,98.4,153.7,96.8z"/>
	<line class="st3" x1="153.7" y1="96.8" x2="167.1" y2="99.7"/>
	<line class="st3" x1="111.9" y1="99.7" x2="107.1" y2="99.7"/>
	<path class="st6" d="M132.4,145.5c-5.2,4.1-12.9,1.5-19.3,1.4c-10-0.2-23,3.6-31.5-2.3c-1.5-1-2.9,1.4-1.4,2.5
		c4.6,3.2,7.6,4,13.2,3.6c6.6-0.5,13.1-0.9,19.7-0.9c8.3,0.1,14.6,3.2,21.3-2.2C135.9,146.4,133.8,144.4,132.4,145.5z"/>
	<path class="st6" d="M110.6,158.9c-2.3,0.7-4.5,0.6-6.7-0.2c-1.7-0.6-2.5,2.1-0.8,2.7c2.7,1,5.5,1.1,8.2,0.2
		C113.1,161.1,112.4,158.3,110.6,158.9z"/>
	<path class="st6" d="M112.5,130.2c-4,3.5-8.6,3.2-12.4-0.4c-1.3-1.3-3.4,0.8-2,2c5,4.7,11.2,4.9,16.4,0.4
		C115.9,131,113.9,129,112.5,130.2z"/>
	<path d="M179.7,69.6c0.5,0.4,1.6,0.1,1.3-0.7c-1.8-4.6-3.3-9.4-5.9-13.7c0,0,0,0,0,0c0.7,0.1,1.1-0.5,0.9-1c-1-2.1-2-4.1-3.5-5.9
		c0.9,0,1.8,0.1,2.6,0.2c0.6,0.1,1.3-0.5,0.9-1c-2.7-3.5-5.1-7.2-8.2-10.5c0.6-0.1,1.3-0.2,1.9-0.2c0.6,0,1.1-0.8,0.5-1.2
		c-4-3.1-8.3-5.9-12.5-8.9c0.9-0.3,1.9-0.5,2.9-0.6c0.8-0.1,1-0.9,0.4-1.3c-5.2-3.6-11.8-4.4-17.6-6.9c0.6-0.3,1.1-0.5,1.7-0.8
		c0.7-0.3,0.4-1.1-0.2-1.3c-4.2-1.3-8.5-0.2-12.7-1c1.2-0.7,3.1-1.5,3.1-2.9c0-0.4-0.3-0.7-0.8-0.7c-5.3,0.3-10.6,0.6-15.9,0.7
		c1.1-1,2.1-2,3-3.2c0.4-0.4-0.1-1.1-0.7-1.1c-0.5,0-1.1,0.1-1.6,0.1c-0.3-0.1-0.6,0-0.9,0.1c-2.7,0.3-5.2,1-7.7,1.9
		c-0.1,0-0.1,0-0.2,0.1c-1.8,0.7-3.5,1.4-5.3,2.2c0.1-0.2,0.1-0.5,0-0.7c0.2-0.2,0.5-0.5,0.7-0.7c0.9-1,0-2.9-1.5-2.4
		c-2.2,0.7-5.2,1.6-7,3.3c-1.8,0.6-3.6,1.3-5.5,1.4c0.1-0.8,0.1-1.5,0.2-2.3c0.1-0.5-0.4-1-0.9-0.9c-1.9,0.4-3.5,1.6-5,2.7
		c-0.4,0.3-1.1,0.9-1.8,1.5c-1.4,0.6-2.7,1.4-3.9,2.4c-1,0.2-1.8,0-2.3-1.2c-0.2-0.5-0.8-0.7-1.3-0.3c-1.5,1.2-2.8,2.3-3.8,3.8
		c-0.1,0-0.2-0.1-0.4,0c-1.5,0.2-2.8,0.9-4.3,1c-0.4,0-0.7,0.3-0.8,0.7c-0.3,3.6-4.1,4.1-7,5c-0.2,0.1-0.5,0.3-0.5,0.5
		c-0.6,3-6.8,6.7-9.7,7.3c-0.5,0.1-0.7,0.7-0.5,1c1.4,1.9,0.5,2.3-1.2,3.8c-2,1.7-4.2,3.1-6.4,4.5c-0.4,0.2-0.5,0.8-0.2,1.1
		c0.8,0.7,1.7,1.3,2.6,1.9c-0.6,0.6-1.1,1.1-1.6,1.8c-0.2,0.2-0.3,0.5-0.3,0.8c-1,1.4-1.9,2.9-2.9,4.2c-0.3,0.3-0.3,0.9,0.2,1.1
		c0.5,0.2,1,0.4,1.5,0.6c0.1,0.1,0.2,0.2,0.4,0.2c-1.3,2.1-2.9,3.9-4,6C38,60.5,38,60.8,38.2,61c3.9,3.3-1,8-3.1,10.9
		c-0.6,0.8,0.7,1.4,1.3,0.7c0.1-0.1,0.1-0.1,0.2-0.2c0,0,0.1,0,0.1,0c0.8-0.1,1.7-0.3,2.5-0.4c0.3,3.4-1.9,6-4.1,8.8
		c-0.3,0.4,0,1,0.4,1c0.9,0.1,1.7,0.3,2.5,0.5c-1.6,3-2.8,6.1-4.2,9.3c-0.1,0.3,0.1,0.8,0.5,0.9c1.4,0.2,2.8,0.3,3.9,0.6
		c-0.5,0.6-1.1,1.3-1.6,1.9c-0.3,0.3-0.3,0.9,0.2,1.1c1.2,0.6,2.3,1.4,3.3,2.3c0.4,0.5,0.6,0.8,1.1,1.3c0.1,0.2,0.3,0.2,0.5,0.2
		c0.3,0.9,0.7,1.8,0.9,2.7c0,0.2,0.2,0.4,0.3,0.5c0.1,2.2,1.5,4.6,2.4,6.5c0.3,0.7,1.4,0.3,1.4-0.4c0.1-4.3,1.1-8.6,1.5-12.9
		c0.2-2.5,0.5-6.2-1.4-8.3c2.7-1.4,5.1-3.1,7.2-5.4c0.5-0.5,0.1-1.2-0.5-1.2c-0.7-0.1-1.4-0.2-2.2-0.3c2.4-1.3,4.3-3.1,5.8-5.6
		c2.4-4,3.4-8.5,6.7-12.1c0.3-0.3,0.3-0.7,0-1c-0.6-0.7-1.1-1.3-1.7-1.9c2.7-0.6,5.3-1.1,7.6-2.6c0.4-0.3,0.5-0.7,0.2-1.1
		c-0.4-0.5-0.8-1-1.2-1.5c1.2-0.1,2.4-0.1,3.5,0.2c0.3,0.1,0.5,0,0.7-0.1c0.5,0.1,1,0.1,1.4,0.1c0.5,0.1,0.9-0.2,1.1-0.5
		c0.3,0,0.6,0.1,0.9,0.1c0.7,0.2,1.1-0.5,0.9-1c-0.7-1.5-1.6-2.8-2.4-4.2c2.1,0.5,4.3,1,6.5,1.3c0.7,0.1,1.3-0.6,0.7-1.2
		c-0.4-0.4-0.7-0.8-1.1-1.2c4.2,2.5,8.1,5.6,12.6,7.7c0.6,0.3,1.2-0.2,1.1-0.8c-0.4-2.2-1-4.2-1.9-6.1c2.3,1.3,4.7,2.6,7,4
		c0.4,0.2,0.7,0.5,1.1,0.7c3.4,2.1,6.6,4.4,9.2,7.1c0.1,0.1,0.1,0.1,0.2,0.1c0.2,0.6,1.4,0.5,1.5-0.3c0.2-2,0.3-4.1,0.4-6.1
		c1.4,2.3,3.1,4.4,4.3,6.8c0.2,0.5,1.1,0.5,1.3,0c1.4-2.6,2.4-5.4,3.7-8.1c0.1,0.2,0.1,0.5,0.2,0.7c0.1,1.3,0.1,2.5-0.1,3.8
		c0,0.4,0.4,0.7,0.8,0.7c1.5,0,2.7-2.2,3.8-3.1c1.9-1.7,4.2-3,6.5-4.2c0.2,0,0.4-0.1,0.7-0.2c0.3-0.1,0.5-0.3,0.7-0.5
		c0.6-0.3,1.2-0.5,1.8-0.8c-0.3,0.8-0.8,1.5-1.3,2.1c0,0,0,0-0.1,0.1c-0.1,0.1-0.2,0.2-0.2,0.3c-0.5,0.6-1,1.2-1.5,1.8
		c-0.4,0.5-0.1,1.2,0.5,1.2c5.8,0.5,11.4-1.2,17.2-0.9c-0.7,0.7-1.4,1.5-2.2,2.1c-0.5,0.4-0.1,1.2,0.5,1.2h2c-0.2,0.4,0,1.1,0.6,1.1
		c0.9,0,1.7,0.1,2.5,0.2c-0.5,0.7-1,1.6-1.2,1.8c-0.3,0.3-0.3,0.9,0.2,1.1c2.9,1.6,6.1,2.7,9.2,3.9c-1.3,1.2-2.7,2.3-4.1,3.5
		c-0.4,0.4-0.2,1,0.3,1.2c2.9,0.9,3.8,2.3,2.1,4.7c-0.9,1.3-1.7,2.6-2.3,4.1c-0.1,0.3,0.1,0.6,0.3,0.8c1.7,1.2,2.9,2.5,4,3.8
		c1,2.5,1.9,5,2.5,7.7c0.3,1.5,0.5,3.1,0.6,4.6c-0.4,0.1-0.7,0.4-0.6,0.9c0.4,2.2,0.6,4.4,0.8,6.6c0,0.2,0,0.5,0,0.7
		c0,0.2,0,0.4,0.1,0.6c0.1,1.1,0.2,2.2,0.2,3.3c0.1,0.8,1.2,1,1.5,0.2c0.5-1.2,0.9-2.4,1.3-3.6c0.1-0.2,0.2-0.4,0.2-0.7
		c0.1-0.5,0.3-0.9,0.4-1.4c0,0,0.1-0.1,0.1-0.1c0.2-0.2,0.2-0.5,0.1-0.7c0.3-0.9,0.6-1.9,0.9-2.8c0.1,0.3,0.4,0.5,0.7,0.5h0.8
		c0.2,0,0.4-0.1,0.5-0.2c0,0,0,0,0,0c1,0.6,2.2-0.2,2.3-1.2c0.1-1.6,0.1-1.7-0.2-3.3c0-0.1,0-0.2,0-0.3c0.5,0,1-0.4,0.8-0.9
		c-0.5-1.1-0.8-2.3-1.1-3.4c0-0.4,0.1-0.8,0.1-1.2c0.4-0.1,0.8-0.1,1.2-0.2c0.3-0.1,0.6-0.4,0.6-0.7c0-2.1-0.2-4.2-0.3-6.3
		c1.4,0.5,2.8,0.7,4.3,1c0.6,0.1,1.1-0.3,0.9-0.9c-1.1-4.9-2.9-9.6-3.6-14.5C178.2,68.7,179,69.1,179.7,69.6z"/>
</g>
</svg>
